<svg width="40" height="40" viewBox="0 0 40 40" fill="none" xmlns="http://www.w3.org/2000/svg">
<path fill-rule="evenodd" clip-rule="evenodd" d="M24.416 5.66C25.3227 5.94 26.1893 6.3 27.016 6.74L30.682 4.54C31.0643 4.31072 31.5122 4.21572 31.9546 4.27007C32.397 4.32442 32.8086 4.52502 33.124 4.84L35.16 6.876C35.475 7.1914 35.6756 7.60299 35.7299 8.04541C35.7843 8.48784 35.6893 8.93574 35.46 9.318L33.26 12.984C33.7 13.8107 34.06 14.6773 34.34 15.584L38.486 16.622C38.9185 16.7303 39.3024 16.9801 39.5767 17.3316C39.851 17.6831 40 18.1161 40 18.562V21.438C40 21.8839 39.851 22.3169 39.5767 22.6684C39.3024 23.0199 38.9185 23.2697 38.486 23.378L34.34 24.416C34.06 25.3227 33.7 26.1893 33.26 27.016L35.46 30.682C35.6893 31.0643 35.7843 31.5122 35.7299 31.9546C35.6756 32.397 35.475 32.8086 35.16 33.124L33.124 35.16C32.8086 35.475 32.397 35.6756 31.9546 35.7299C31.5122 35.7843 31.0643 35.6893 30.682 35.46L27.016 33.26C26.1893 33.7 25.3227 34.06 24.416 34.34L23.378 38.486C23.2697 38.9185 23.0199 39.3024 22.6684 39.5767C22.3169 39.851 21.8839 40 21.438 40H18.562C18.1161 40 17.6831 39.851 17.3316 39.5767C16.9801 39.3024 16.7303 38.9185 16.622 38.486L15.584 34.34C14.6854 34.0623 13.8149 33.7007 12.984 33.26L9.318 35.46C8.93574 35.6893 8.48784 35.7843 8.04541 35.7299C7.60299 35.6756 7.1914 35.475 6.876 35.16L4.84 33.124C4.52502 32.8086 4.32442 32.397 4.27007 31.9546C4.21572 31.5122 4.31072 31.0643 4.54 30.682L6.74 27.016C6.29928 26.1851 5.93769 25.3146 5.66 24.416L1.514 23.378C1.08184 23.2697 0.698197 23.0203 0.423925 22.6692C0.149654 22.3181 0.000457285 21.8855 0 21.44V18.564C1.17209e-05 18.1181 0.149004 17.6851 0.423311 17.3336C0.697617 16.9821 1.08151 16.7323 1.514 16.624L5.66 15.586C5.94 14.6793 6.3 13.8127 6.74 12.986L4.54 9.32C4.31072 8.93774 4.21572 8.48984 4.27007 8.04741C4.32442 7.60499 4.52502 7.1934 4.84 6.878L6.876 4.84C7.1914 4.52502 7.60299 4.32442 8.04541 4.27007C8.48784 4.21572 8.93574 4.31072 9.318 4.54L12.984 6.74C13.8107 6.3 14.6773 5.94 15.584 5.66L16.622 1.514C16.7303 1.08184 16.9797 0.698197 17.3308 0.423925C17.6819 0.149654 18.1145 0.000457285 18.56 0H21.436C21.8819 1.17209e-05 22.3149 0.149004 22.6664 0.423311C23.0179 0.697617 23.2677 1.08151 23.376 1.514L24.416 5.66ZM20 28C22.1217 28 24.1566 27.1571 25.6569 25.6569C27.1571 24.1566 28 22.1217 28 20C28 17.8783 27.1571 15.8434 25.6569 14.3431C24.1566 12.8429 22.1217 12 20 12C17.8783 12 15.8434 12.8429 14.3431 14.3431C12.8429 15.8434 12 17.8783 12 20C12 22.1217 12.8429 24.1566 14.3431 25.6569C15.8434 27.1571 17.8783 28 20 28Z" fill="#F1F1F1"/>
</svg>
