<svg width="50" height="50" viewBox="0 0 50 50" fill="none" xmlns="http://www.w3.org/2000/svg">
<rect y="32" width="18" height="8" rx="4" fill="#F1F1F1"/>
<rect y="16" width="30" height="8" rx="4" fill="#F1F1F1"/>
<rect width="40" height="8" rx="4" fill="#F1F1F1"/>
<g filter="url(#filter0_d_55_11)">
<path d="M39.9996 32.1866C40.0064 32.4612 39.9173 32.7304 39.746 32.9528C39.5769 33.1796 39.3328 33.3474 39.0518 33.4301L36.7691 34.146C36.0659 34.3657 35.4263 34.7353 34.9001 35.2261C34.3746 35.7182 33.9811 36.321 33.7521 36.9845L32.9511 39.1197C32.8677 39.376 32.6993 39.6004 32.4705 39.7602C32.2264 39.9162 31.938 39.9994 31.6429 39.9989C31.3467 40.0108 31.0547 39.9296 30.813 39.7681C30.5713 39.6067 30.3936 39.3741 30.3079 39.1071L29.547 36.9594C29.318 36.2958 28.9245 35.6931 28.3989 35.201C27.8684 34.7125 27.2305 34.3395 26.53 34.1083L24.2473 33.4049C23.977 33.3158 23.7404 33.1543 23.5664 32.9402C23.3912 32.7134 23.2934 32.4418 23.2861 32.1615C23.2734 31.8829 23.3597 31.6082 23.5313 31.3808C23.7029 31.1534 23.9501 30.9862 24.2339 30.9055L26.53 30.1896C27.2421 29.9731 27.8894 29.6006 28.4185 29.1028C28.9477 28.6049 29.3436 27.996 29.5737 27.326L30.3346 25.2034C30.4124 24.9422 30.578 24.7118 30.8066 24.5465C31.0352 24.3812 31.3145 24.29 31.6028 24.2865C31.8898 24.2865 32.1715 24.3606 32.4171 24.5C32.6601 24.657 32.847 24.8806 32.9511 25.1406L33.7254 27.326C33.9555 27.996 34.3514 28.6049 34.8806 29.1028C35.4097 29.6006 36.057 29.9731 36.7691 30.1896L39.0385 30.9432C39.3146 31.0284 39.5536 31.1959 39.7193 31.4205C39.9001 31.6397 39.9987 31.9091 39.9996 32.1866ZM26.6515 24.1986C26.6495 24.4448 26.5705 24.685 26.4246 24.8894C26.2668 25.0916 26.0482 25.2447 25.7971 25.329L24.1151 25.8565C23.6439 26.0097 23.2167 26.2584 22.8602 26.585C22.5118 26.9193 22.2473 27.3227 22.086 27.7656L21.512 29.323C21.4306 29.5633 21.2661 29.7711 21.0447 29.9133C20.8253 30.0575 20.5648 30.1363 20.2971 30.1394C20.0235 30.1351 19.7579 30.0518 19.5362 29.9008C19.3263 29.7505 19.1683 29.5451 19.0823 29.3104L18.535 27.7405C18.3744 27.3009 18.1096 26.9015 17.7607 26.5724C17.4189 26.2349 16.9918 25.9843 16.5192 25.8439L14.8506 25.3164C14.5916 25.2397 14.3666 25.0853 14.2098 24.8768C14.1035 24.7202 14.0355 24.5434 14.0106 24.3591C13.9858 24.1748 14.0046 23.9877 14.0659 23.8111C14.1272 23.6345 14.2294 23.4729 14.3651 23.3379C14.5008 23.2029 14.6666 23.0979 14.8506 23.0305L16.5192 22.5156C16.9914 22.3605 17.4203 22.1071 17.7739 21.7744C18.1276 21.4417 18.3969 21.0382 18.5617 20.5939L19.109 19.0491C19.1877 18.8176 19.3361 18.6125 19.5362 18.4588C19.7489 18.308 20.0046 18.2205 20.2705 18.2076C20.5398 18.2008 20.8051 18.2708 21.0314 18.4085C21.2541 18.5499 21.4262 18.7513 21.5253 18.9863L22.086 20.5939C22.2508 21.0382 22.5201 21.4417 22.8738 21.7744C23.2274 22.1071 23.6563 22.3605 24.1284 22.5156L25.7971 23.0557C26.0467 23.1363 26.262 23.2905 26.4112 23.4952C26.5692 23.6995 26.6534 23.946 26.6515 24.1986ZM34.3795 17.4665C34.3674 17.6955 34.2889 17.9171 34.1526 18.1071C34.0137 18.2862 33.817 18.4183 33.5919 18.4839L32.7642 18.7476C32.6034 18.7998 32.4574 18.8858 32.3371 18.9989C32.2169 19.1121 32.1255 19.2495 32.0701 19.4007L31.7764 20.192C31.6957 20.3847 31.5621 20.5537 31.3892 20.6818C31.1924 20.8302 30.9472 20.91 30.6951 20.9079C30.4643 20.8944 30.2402 20.8299 30.0409 20.7195C29.8414 20.5812 29.6921 20.3882 29.6137 20.1669L29.3334 19.3882C29.2852 19.2337 29.1928 19.0947 29.0664 18.9863C28.9487 18.8701 28.8018 18.7837 28.6392 18.7351L27.8116 18.4839C27.5913 18.4031 27.3978 18.2687 27.2509 18.0945C27.1124 17.9063 27.0379 17.6829 27.0373 17.454C27.0451 17.2242 27.1239 17.0016 27.2642 16.8134C27.408 16.639 27.6029 16.508 27.8249 16.4366L28.6392 16.1854C28.8037 16.1326 28.954 16.0469 29.0798 15.9342C29.1996 15.8159 29.2907 15.6745 29.3468 15.5198L29.6271 14.741C29.7072 14.5464 29.834 14.3743 30.0009 14.2387C30.1924 14.1057 30.4183 14.0233 30.655 14C30.9069 13.9987 31.1535 14.0687 31.3625 14.201C31.5507 14.3342 31.6981 14.5118 31.7897 14.7159L32.0701 15.5198C32.1262 15.6745 32.2172 15.8159 32.337 15.9342C32.4612 16.0427 32.6062 16.128 32.7642 16.1854L33.6052 16.4492C33.8191 16.5284 34.0076 16.6581 34.1526 16.826C34.2982 17.0116 34.3776 17.2358 34.3795 17.4665Z" fill="#F9EB9A"/>
<path d="M39.4996 32.1883H39.4995L39.4998 32.199C39.5037 32.3563 39.4529 32.5139 39.3499 32.6477L39.3498 32.6476L39.3452 32.6539C39.2432 32.7906 39.0918 32.8971 38.9106 32.9504L38.9106 32.9503L38.9022 32.953L36.62 33.6687C35.847 33.9102 35.1414 34.3173 34.5591 34.8605L34.5584 34.8611C33.9767 35.4058 33.5382 36.075 33.2817 36.8149L32.483 38.944L32.4791 38.9544L32.4757 38.9649C32.4281 39.1111 32.3311 39.2451 32.1925 39.3445C32.0324 39.4444 31.8414 39.4992 31.6437 39.4989L31.6333 39.4988L31.6228 39.4993C31.43 39.507 31.2427 39.4539 31.0908 39.3524C30.9393 39.2511 30.8338 39.1096 30.784 38.9543L30.7817 38.9472L30.7792 38.9401L30.0197 36.7963C30.0194 36.7956 30.0192 36.795 30.019 36.7944C29.7627 36.0526 29.3236 35.3818 28.7407 34.836L28.7376 34.8332C28.1536 34.2954 27.4532 33.8865 26.6867 33.6335L26.6868 33.6334L26.6772 33.6305L24.3997 32.9287C24.2211 32.869 24.0688 32.7637 23.9583 32.6296C23.8489 32.486 23.7903 32.3183 23.7859 32.1485L23.786 32.1485L23.7856 32.1388C23.7783 31.9792 23.8274 31.8186 23.9304 31.682C24.034 31.5447 24.1875 31.4385 24.3706 31.3865L24.3706 31.3867L24.3827 31.3829L26.6755 30.668C26.6761 30.6678 26.6767 30.6676 26.6773 30.6675C27.4604 30.4291 28.175 30.0184 28.7611 29.4669C29.3471 28.9157 29.7881 28.2391 30.0455 27.4916L30.8053 25.3721L30.8099 25.3592L30.8138 25.3462C30.859 25.1945 30.9569 25.0548 31.0996 24.9517C31.2419 24.8488 31.4194 24.7894 31.6059 24.7865C31.8013 24.787 31.9919 24.8366 32.1576 24.9278C32.3086 25.0285 32.4205 25.1657 32.4836 25.3182L33.2525 27.4884C33.2528 27.4892 33.253 27.49 33.2533 27.4908C33.5106 28.2387 33.9518 28.9155 34.538 29.4669C35.123 30.0174 35.836 30.4275 36.6174 30.6661L38.8809 31.4177L38.8809 31.4179L38.8911 31.421C39.0689 31.4759 39.2171 31.582 39.317 31.7174L39.325 31.7282L39.3336 31.7387C39.4428 31.8711 39.4991 32.0293 39.4996 32.1883ZM23.9655 25.3794L23.9655 25.3794L23.9605 25.381C23.4224 25.556 22.9325 25.8406 22.5225 26.2163L22.5224 26.2162L22.5141 26.2242C22.1121 26.6099 21.8046 27.0774 21.6165 27.5936C21.6164 27.5939 21.6163 27.5942 21.6162 27.5945L21.0428 29.1501L21.0426 29.15L21.0384 29.1626C20.9948 29.2914 20.9044 29.4092 20.7745 29.4926L20.7745 29.4926L20.7702 29.4954C20.634 29.5849 20.4697 29.636 20.2981 29.6393C20.1246 29.6353 19.959 29.5824 19.8225 29.4908C19.6949 29.3981 19.6029 29.2758 19.553 29.1416L19.0072 27.5759L19.0072 27.5759L19.0047 27.5689C18.8173 27.0562 18.5099 26.5929 18.1079 26.2125C17.7078 25.8189 17.2115 25.5288 16.666 25.3659L15.0013 24.8397L15.0013 24.8396L14.9925 24.837C14.8369 24.7909 14.7065 24.7009 14.6167 24.5859C14.5571 24.4948 14.52 24.3947 14.5061 24.2923C14.4918 24.1861 14.5026 24.0779 14.5383 23.975C14.5741 23.8719 14.6346 23.7751 14.7177 23.6924C14.7984 23.6121 14.8984 23.5473 15.0118 23.5041L16.6667 22.9933L16.6667 22.9934L16.6753 22.9906C17.2153 22.8132 17.7083 22.5226 18.1166 22.1386C18.5249 21.7544 18.8381 21.2862 19.0305 20.7679L19.0305 20.7679L19.033 20.7609L19.5803 19.216L19.5804 19.2161L19.5825 19.21C19.6274 19.0778 19.7128 18.9559 19.8333 18.8611C19.9635 18.7711 20.1217 18.7165 20.289 18.7073C20.4604 18.704 20.627 18.7488 20.7673 18.8332C20.901 18.9191 21.0007 19.0365 21.0591 19.1679L21.6139 20.7586L21.6138 20.7586L21.6172 20.7679C21.8096 21.2862 22.1228 21.7544 22.5311 22.1386C22.9394 22.5226 23.4324 22.8132 23.9724 22.9906L23.9745 22.9913L25.6432 23.5314L25.6434 23.5314C25.7962 23.5808 25.9224 23.6734 26.0071 23.7896L26.0113 23.7955L26.0158 23.8012C26.1068 23.9188 26.1525 24.0567 26.1515 24.1944C26.1504 24.3324 26.1073 24.4697 26.0238 24.5901C25.9296 24.7073 25.7981 24.8004 25.6422 24.8535L23.9655 25.3794ZM33.4521 18.0038L33.4521 18.0037L33.4401 18.0075L32.6124 18.2712L32.6098 18.2721C32.3806 18.3465 32.1698 18.4698 31.9945 18.6348C31.8194 18.7995 31.6841 19.0016 31.6011 19.2272C31.601 19.2276 31.6008 19.2281 31.6006 19.2286L31.3117 20.0071C31.2665 20.111 31.1919 20.2058 31.0916 20.2801L31.0916 20.2801L31.0883 20.2826C30.9845 20.3608 30.8517 20.4066 30.7112 20.4079C30.5677 20.3978 30.4294 20.3586 30.3061 20.2944C30.1999 20.2153 30.1247 20.1119 30.0851 19.9999L30.0842 19.9975L29.8071 19.2278C29.7309 18.9913 29.591 18.7817 29.4053 18.6183C29.2303 18.4496 29.0165 18.3262 28.7836 18.2564C28.7832 18.2563 28.7829 18.2561 28.7825 18.256L27.9719 18.01C27.8416 17.9601 27.7296 17.8818 27.6441 17.785C27.5753 17.6861 27.5395 17.574 27.5374 17.4617C27.5432 17.343 27.5837 17.2255 27.6578 17.1222C27.7376 17.029 27.8469 16.9553 27.9755 16.9134L28.7866 16.6632L28.7866 16.6632L28.7921 16.6615C29.0218 16.5877 29.2341 16.4673 29.4134 16.3066L29.4225 16.2985L29.4312 16.2899C29.6025 16.1206 29.7348 15.9164 29.8168 15.6902L29.8172 15.6891L30.0933 14.9222C30.1396 14.8136 30.2098 14.7172 30.3018 14.6387C30.4124 14.5656 30.5423 14.5174 30.6807 14.5002C30.8261 14.5034 30.9659 14.5446 31.0843 14.6167C31.1911 14.6949 31.2729 14.794 31.3257 14.9037L31.5979 15.6844L31.5979 15.6844L31.6 15.6902C31.682 15.9164 31.8143 16.1206 31.9856 16.2899L31.9965 16.3007L32.0081 16.3108C32.1797 16.4607 32.3785 16.5772 32.5934 16.6553L32.6039 16.6592L32.6146 16.6625L33.4422 16.9221C33.5707 16.9715 33.6813 17.0484 33.7662 17.1437C33.8374 17.2382 33.8752 17.3467 33.8792 17.4558C33.8699 17.579 33.827 17.7001 33.7519 17.8077C33.6802 17.8971 33.5765 17.9676 33.4521 18.0038Z" stroke="#252525"/>
</g>
<defs>
<filter id="filter0_d_55_11" x="4" y="4" width="46" height="46" filterUnits="userSpaceOnUse" color-interpolation-filters="sRGB">
<feFlood flood-opacity="0" result="BackgroundImageFix"/>
<feColorMatrix in="SourceAlpha" type="matrix" values="0 0 0 0 0 0 0 0 0 0 0 0 0 0 0 0 0 0 127 0" result="hardAlpha"/>
<feOffset/>
<feGaussianBlur stdDeviation="5"/>
<feComposite in2="hardAlpha" operator="out"/>
<feColorMatrix type="matrix" values="0 0 0 0 0 0 0 0 0 0 0 0 0 0 0 0 0 0 0.5 0"/>
<feBlend mode="normal" in2="BackgroundImageFix" result="effect1_dropShadow_55_11"/>
<feBlend mode="normal" in="SourceGraphic" in2="effect1_dropShadow_55_11" result="shape"/>
</filter>
</defs>
</svg>
