<svg width="88" height="64" viewBox="0 0 88 64" fill="none" xmlns="http://www.w3.org/2000/svg">
<path d="M4 24H54" stroke="#F1F1F1" stroke-width="8" stroke-linecap="round"/>
<path d="M4 42H34" stroke="#F1F1F1" stroke-width="8" stroke-linecap="round"/>
<path d="M4 60H16.5" stroke="#F1F1F1" stroke-width="8" stroke-linecap="round"/>
<g filter="url(#filter0_d_47_53)">
<path d="M77.6217 40.2012C77.6323 40.6572 77.4931 41.1041 77.2254 41.4735C76.9612 41.85 76.5799 42.1287 76.1408 42.266L72.5743 43.4549C71.4757 43.8197 70.4763 44.4336 69.6543 45.2486C68.8331 46.0658 68.2183 47.0667 67.8605 48.1686L66.6091 51.7143C66.4788 52.1399 66.2156 52.5127 65.8583 52.778C65.4768 53.0371 65.0262 53.1752 64.5651 53.1743C64.1024 53.1941 63.6462 53.0593 63.2686 52.7912C62.891 52.523 62.6133 52.1368 62.4794 51.6935L61.2905 48.1269C60.9328 47.025 60.318 46.0241 59.4968 45.2069C58.668 44.3957 57.6712 43.7762 56.5768 43.3923L53.0103 42.2243C52.588 42.0763 52.2183 41.8081 51.9465 41.4526C51.6727 41.076 51.5199 40.625 51.5085 40.1595C51.4888 39.6967 51.6236 39.2406 51.8917 38.8629C52.1598 38.4853 52.546 38.2076 52.9894 38.0737L56.5768 36.8849C57.6894 36.5254 58.7007 35.9068 59.5274 35.08C60.3542 34.2533 60.9727 33.242 61.3323 32.1295L62.5211 28.6046C62.6427 28.1709 62.9014 27.7882 63.2586 27.5137C63.6157 27.2393 64.0522 27.0878 64.5025 27.082C64.951 27.082 65.3911 27.2051 65.7748 27.4366C66.1544 27.6973 66.4464 28.0686 66.6091 28.5003L67.8188 32.1295C68.1783 33.242 68.7969 34.2533 69.6237 35.08C70.4504 35.9068 71.4617 36.5254 72.5743 36.8849L76.12 38.1363C76.5513 38.2777 76.9248 38.556 77.1837 38.9289C77.4662 39.293 77.6202 39.7403 77.6217 40.2012ZM56.7666 26.936C56.7634 27.3449 56.6401 27.7438 56.4121 28.0832C56.1655 28.4189 55.8241 28.6732 55.4318 28.8132L52.8038 29.6892C52.0675 29.9436 51.4001 30.3566 50.8432 30.8989C50.2988 31.454 49.8855 32.1239 49.6335 32.8595L48.7366 35.4457C48.6095 35.8448 48.3525 36.1899 48.0066 36.426C47.6637 36.6654 47.2568 36.7962 46.8386 36.8015C46.4111 36.7944 45.9961 36.656 45.6498 36.4052C45.3217 36.1557 45.075 35.8145 44.9406 35.4249L44.0855 32.8177C43.8346 32.0878 43.4209 31.4245 42.8758 30.878C42.3416 30.3176 41.6743 29.9015 40.9361 29.6683L38.3289 28.7923C37.9244 28.665 37.5727 28.4086 37.3278 28.0623C37.1618 27.8023 37.0555 27.5087 37.0166 27.2026C36.9778 26.8966 37.0073 26.5857 37.103 26.2925C37.1988 25.9992 37.3584 25.7308 37.5704 25.5067C37.7824 25.2826 38.0414 25.1083 38.3289 24.9963L40.9361 24.1412C41.6738 23.8836 42.3438 23.4629 42.8964 22.9103C43.4489 22.3578 43.8696 21.6877 44.1272 20.95L44.9823 18.3846C45.1053 18.0001 45.3371 17.6596 45.6498 17.4043C45.982 17.154 46.3815 17.0087 46.7969 16.9872C47.2178 16.9759 47.6323 17.0922 47.9858 17.3209C48.3337 17.5558 48.6027 17.8901 48.7575 18.2803L49.6335 20.95C49.8911 21.6877 50.3118 22.3578 50.8643 22.9103C51.4168 23.4629 52.0869 23.8836 52.8246 24.1412L55.4318 25.038C55.8217 25.172 56.1581 25.4279 56.3912 25.768C56.6381 26.1072 56.7697 26.5166 56.7666 26.936ZM68.8408 15.7566C68.8219 16.1369 68.6993 16.5048 68.4863 16.8203C68.2692 17.1177 67.962 17.3372 67.6103 17.446L66.3171 17.884C66.0659 17.9707 65.8377 18.1134 65.6498 18.3013C65.4619 18.4892 65.3192 18.7174 65.2325 18.9686L64.7737 20.2826C64.6477 20.6026 64.439 20.8833 64.1688 21.096C63.8613 21.3424 63.4782 21.475 63.0843 21.4715C62.7237 21.4491 62.3735 21.3419 62.0623 21.1586C61.7504 20.9289 61.5173 20.6083 61.3948 20.2409L60.9568 18.9477C60.8815 18.6913 60.7372 18.4604 60.5397 18.2803C60.3558 18.0874 60.1263 17.9439 59.8723 17.8632L58.5791 17.446C58.235 17.3119 57.9327 17.0887 57.7031 16.7995C57.4867 16.4869 57.3704 16.1159 57.3694 15.7357C57.3815 15.3542 57.5048 14.9845 57.724 14.672C57.9486 14.3824 58.2531 14.1649 58.6 14.0463L59.8723 13.6292C60.1291 13.5415 60.364 13.3992 60.5605 13.212C60.7477 13.0155 60.89 12.7806 60.9777 12.5237L61.4157 11.2306C61.5408 10.9073 61.739 10.6216 61.9997 10.3963C62.2989 10.1755 62.6518 10.0386 63.0217 10C63.4153 9.99778 63.8005 10.1141 64.1271 10.3337C64.4211 10.5549 64.6514 10.85 64.7945 11.1889L65.2325 12.5237C65.3202 12.7806 65.4625 13.0155 65.6497 13.212C65.8437 13.3922 66.0702 13.5337 66.3171 13.6292L67.6311 14.0672C67.9653 14.1987 68.2598 14.4142 68.4863 14.6929C68.7138 15.0011 68.8379 15.3735 68.8408 15.7566Z" fill="#F9EB9A"/>
</g>
<defs>
<filter id="filter0_d_47_53" x="27" y="0" width="60.6221" height="63.1763" filterUnits="userSpaceOnUse" color-interpolation-filters="sRGB">
<feFlood flood-opacity="0" result="BackgroundImageFix"/>
<feColorMatrix in="SourceAlpha" type="matrix" values="0 0 0 0 0 0 0 0 0 0 0 0 0 0 0 0 0 0 127 0" result="hardAlpha"/>
<feOffset/>
<feGaussianBlur stdDeviation="5"/>
<feComposite in2="hardAlpha" operator="out"/>
<feColorMatrix type="matrix" values="0 0 0 0 0 0 0 0 0 0 0 0 0 0 0 0 0 0 0.5 0"/>
<feBlend mode="normal" in2="BackgroundImageFix" result="effect1_dropShadow_47_53"/>
<feBlend mode="normal" in="SourceGraphic" in2="effect1_dropShadow_47_53" result="shape"/>
</filter>
</defs>
</svg>
